name C:\Users\u0101727\Documents\MyRepositories\paper-ad\trackingsimulations_3d\Results\TrackSim\IK_c11.mot
datacolumns 32
datarows 16
range 3.45000000 3.69000000
endheader
time	pelvis_tilt	pelvis_list	pelvis_rotation	pelvis_tx	pelvis_ty	pelvis_tz	hip_flexion_l	hip_adduction_l	hip_rotation_l	hip_flexion_r	hip_adduction_r	hip_rotation_r	knee_angle_l	knee_angle_r	ankle_angle_l	ankle_angle_r	subtalar_angle_l	subtalar_angle_r	lumbar_extension	lumbar_bending	lumbar_rotation	arm_flex_l	arm_add_l	arm_rot_l	arm_flex_r	arm_add_r	arm_rot_r	elbow_flex_l	elbow_flex_r	pro_sup_l	pro_sup_r	
          3.45000000	         -2.16665136	          4.38567436	          4.40615340	         -0.50777567	          0.94265401	         -0.23003014	         15.04693895	          9.17664000	          3.45859739	         13.63961257	         -1.82311167	         -2.18267549	        -22.13775360	        -65.08871568	          5.22447700	        -12.89358597	          5.73958917	        -13.56982989	         -4.52097554	         -4.06205252	         -3.34323823	         -1.83218135	        -15.69913366	         17.87087419	         -4.80677119	        -16.91054254	         12.14115095	         21.28662490	         23.55049953	         86.51662706	         86.51662706	
          3.46600000	         -2.19586405	          4.17197916	          4.34671440	         -0.48947176	          0.94554111	         -0.23059142	         13.65073159	          8.93042915	          3.80311050	         16.82253759	         -1.90445673	         -2.03334435	        -21.99016565	        -66.34867231	          6.87106552	        -10.75396177	          5.94248739	        -12.83843099	         -4.69684664	         -3.91554300	         -3.82963822	         -1.63309995	        -15.90515833	         17.29381326	         -5.00451475	        -16.82632341	         12.39615984	         22.62891822	         23.04858835	         86.51662706	         86.51662706	
          3.48200000	         -2.17242888	          3.88806647	          4.28383304	         -0.47107911	          0.94822096	         -0.23109431	         12.13735871	          8.59305129	          4.12837215	         19.72633489	         -1.90565022	         -1.95148000	        -21.64797187	        -66.62750118	          8.04068578	         -8.84736259	          6.01339026	        -11.87481770	         -4.88975160	         -3.66296860	         -4.29404339	         -1.42356867	        -16.08839526	         16.78524503	         -5.27492071	        -16.76375476	         12.44520945	         23.94251589	         22.62499466	         86.51662706	         86.51662706	
          3.49800000	         -2.11588030	          3.52133715	          4.32516934	         -0.45257807	          0.95055237	         -0.23170656	         10.56582898	          8.19723666	          4.56560934	         22.30017107	         -1.83703380	         -2.03659865	        -21.19414500	        -65.91911375	          8.76272326	         -7.16790118	          5.85351652	        -10.92172319	         -5.08564596	         -3.28501793	         -4.82718501	         -1.19924346	        -16.25364285	         16.38310942	         -5.63925667	        -16.72136777	         12.20061256	         25.21751152	         22.32668866	         86.51662706	         86.51662706	
          3.51400000	         -2.03702767	          3.10820509	          4.43877899	         -0.43394309	          0.95242182	         -0.23235960	          8.95171994	          7.75774180	          5.06058994	         24.53066485	         -1.74187804	         -2.25855463	        -20.66617051	        -64.27996779	          9.21829678	         -5.58088210	          5.56656619	        -10.19360623	         -5.27689867	         -2.83257534	         -5.39084451	         -0.96560545	        -16.42070387	         16.07886550	         -6.07324375	        -16.68322512	         11.70174032	         26.46059873	         22.11683246	         86.51662706	         86.51662706	
          3.53000000	         -1.94101625	          2.68852277	          4.58040605	         -0.41515376	          0.95374473	         -0.23295253	          7.29869006	          7.28380620	          5.52172819	         26.41097351	         -1.64768939	         -2.56766568	        -20.09149681	        -61.77446125	          9.59270481	         -3.95974719	          5.30154368	         -9.91697697	         -5.46322907	         -2.36301643	         -5.94254505	         -0.72899671	        -16.60624626	         15.84711670	         -6.53313443	        -16.63226893	         11.04675636	         27.66923529	         21.92910624	         86.51662706	         86.51662706	
          3.54600000	         -1.82756513	          2.30168932	          4.72365026	         -0.39617658	          0.95447845	         -0.23343349	          5.59107519	          6.79626820	          5.88643348	         27.92511225	         -1.58380335	         -2.92038416	        -19.46374704	        -58.47036056	          9.97885161	         -2.37191988	          5.16194979	        -10.05459564	         -5.64978119	         -1.92748570	         -6.46332261	         -0.49504475	        -16.81535791	         15.66957343	         -6.98133533	        -16.55782095	         10.33229715	         28.82100394	         21.70988830	         86.51662706	         86.51662706	
          3.56200000	         -1.69725952	          1.97932793	          4.86681128	         -0.37698389	          0.95461540	         -0.23381109	          3.81608501	          6.32506707	          6.14700998	         29.06860658	         -1.58342866	         -3.29642118	        -18.77088767	        -54.47513902	         10.39165036	         -1.20684703	          5.17891965	        -10.27017142	         -5.84113275	         -1.56221100	         -6.95853278	         -0.26498022	        -17.04232038	         15.53991263	         -7.39283904	        -16.45665414	          9.63300219	         29.88053058	         21.42947355	         86.51662706	         86.51662706	
          3.57800000	         -1.55796108	          1.73507674	          5.02016808	         -0.35756922	          0.95417088	         -0.23411953	          1.98377455	          5.89355837	          6.33810392	         29.86165985	         -1.66717765	         -3.72362223	        -18.02113646	        -49.89970356	         10.81276751	         -0.87347962	          5.32800969	        -10.38482664	         -6.03357537	         -1.28060924	         -7.43826889	         -0.03363449	        -17.27326937	         15.46147786	         -7.75275883	        -16.33154931	          9.00375683	         30.80922311	         21.07328499	         86.51662706	         86.51662706	
          3.59400000	         -1.41868334	          1.57271004	          5.18134214	         -0.33793710	          0.95317799	         -0.23437306	          0.11771387	          5.51854605	          6.50145040	         30.34335726	         -1.83153051	         -4.21504473	        -17.24119066	        -44.86303928	         11.21243158	         -1.22840711	          5.55275748	        -10.06837883	         -6.22108717	         -1.08536469	         -7.89196267	          0.20975174	        -17.49035776	         15.44197955	         -8.05237866	        -16.18837069	          8.48566215	         31.57089468	         20.63124353	         86.51662706	         86.51662706	
          3.61000000	         -1.28896126	          1.49226160	          5.34240160	         -0.31808621	          0.95168054	         -0.23456331	         -1.75112344	          5.21516371	          6.70023587	         30.56206880	         -2.05411692	         -4.78093819	        -16.47080724	        -39.49438308	         11.55885713	         -1.57847469	          5.77181925	         -9.30160865	         -6.39466047	         -0.97704540	         -8.29729422	          0.47736000	        -17.67678227	         15.48995055	         -8.28989932	        -16.03192290	          8.10964979	         32.13278381	         20.09399475	         86.51662706	         86.51662706	
          3.62600000	         -1.17747888	          1.48020723	          5.51623241	         -0.29800736	          0.94974582	         -0.23470269	         -3.58325528	          4.97725417	          6.97721152	         30.55819305	         -2.32057838	         -5.47501624	        -15.76437503	        -33.88526886	         11.83110414	         -1.34968042	          5.93946976	         -8.02074975	         -6.54283379	         -0.93990583	         -8.64715526	          0.77928484	        -17.81696691	         15.61732746	         -8.47029350	        -15.86659206	          7.89787615	         32.47004057	         19.45168304	         86.51662706	         86.51662706	
          3.64200000	         -1.08543566	          1.52162175	          5.71635682	         -0.27767950	          0.94746841	         -0.23479629	         -5.35044998	          4.78941247	          7.33481306	         30.37886568	         -2.62374255	         -6.35408259	        -15.16875500	        -28.18173955	         12.01238355	         -0.76367847	          6.04292985	         -6.17967365	         -6.66070616	         -0.95605370	         -8.94479827	          1.11512790	        -17.90243240	         15.83379751	         -8.59845137	        -15.69480542	          7.86465405	         32.56983851	         18.70280685	         86.51662706	         86.51662706	
          3.65800000	         -1.00677310	          1.59770672	          5.93255575	         -0.25704939	          0.94494118	         -0.23479172	         -7.03793104	          4.62375562	          7.71013038	         30.08670049	         -2.92623515	         -7.41875593	        -14.72209702	        -22.67787757	         12.10213434	         -0.14481237	          6.12749502	         -3.95554839	         -6.74733816	         -1.00688782	         -9.18285357	          1.46726630	        -17.93398455	         16.13885644	         -8.68031782	        -15.51722488	          8.01525306	         32.43682841	         17.85824076	         86.51662706	         86.51662706	
          3.67400000	         -0.93031357	          1.68186911	          6.14443165	         -0.23605602	          0.94225025	         -0.23461608	         -8.62877021	          4.44260219	          8.01044310	         29.77002977	         -3.17492625	         -8.61203536	        -14.47467532	        -17.84397670	         12.11236106	          0.38179612	          6.27752245	         -1.63234008	         -6.80634608	         -1.06542050	         -9.35184001	          1.80653028	        -17.91721243	         16.52005181	         -8.72120995	        -15.33675341	          8.34586912	         32.09672684	         16.94142296	         86.51662706	         86.51662706	
          3.69000000	         -0.84715692	          1.75453038	          6.35823792	         -0.21465317	          0.93948861	         -0.23425751	        -10.09426127	          4.21850723	          8.16284329	         29.50393640	         -3.34574171	         -9.84760216	        -14.48978550	        -14.10984108	         12.04496320	          0.94098970	          6.57128186	          0.47470505	         -6.84053590	         -1.10712075	         -9.47756954	          2.09586594	        -17.85937457	         16.95389633	         -8.72687290	        -15.15899775	          8.84079406	         31.58988314	         15.99186830	         86.51662706	         86.51662706	
